Coordinates
version=1
nRows=7
nColumns=40
inDegrees=yes

Units are S.I. units (second, meters, Newtons, ...)
If the header above contains a line with 'inDegrees', this indicates whether rotational values are in degrees (yes) or radians (no).

endheader
time	pelvis_tilt	pelvis_list	pelvis_rotation	pelvis_tx	pelvis_ty	pelvis_tz	hip_flexion_r	hip_adduction_r	hip_rotation_r	knee_angle_r	knee_angle_r_beta	ankle_angle_r	subtalar_angle_r	mtp_angle_r	hip_flexion_l	hip_adduction_l	hip_rotation_l	knee_angle_l	knee_angle_l_beta	ankle_angle_l	subtalar_angle_l	mtp_angle_l	lumbar_extension	lumbar_bending	lumbar_rotation	arm_flex_r	arm_add_r	arm_rot_r	elbow_flex_r	pro_sup_r	wrist_flex_r	wrist_dev_r	arm_flex_l	arm_add_l	arm_rot_l	elbow_flex_l	pro_sup_l	wrist_flex_l	wrist_dev_l
      4.49000000	     -5.81211414	      5.27499492	     -2.73734297	     -0.46677549	      0.64771468	     -0.79965420	     70.32804150	     -2.07684810	     -6.74157015	    100.63060844	      1.75633545	     30.56357153	      0.00000000	      0.00000000	     70.96606434	     -8.75207281	    -13.00455366	     26.67634168	      0.46558999	    -26.11582719	      0.00000000	      0.00000000	    -25.58307325	    -23.61669957	    -18.57133606	     86.20067244	    -11.34194995	     17.87269100	     50.63716048	     87.75849312	      0.00000000	      0.00000000	     89.97211760	     11.91283142	     18.80062375	     44.67574141	     23.45033629	      0.00000000	      0.00000000
      4.49500000	     -5.82842667	      5.27574192	     -2.73008044	     -0.46673627	      0.64808704	     -0.79967898	     70.30206574	     -2.06619455	     -6.73221037	    100.56199139	      1.75513785	     30.54688670	      0.00000000	      0.00000000	     70.93231773	     -8.73569819	    -12.99834447	     26.62636589	      0.46471775	    -26.09731124	      0.00000000	      0.00000000	    -25.56319147	    -23.63215518	    -18.61481671	     86.19331936	    -11.36773448	     17.91672341	     50.64638668	     87.74318580	      0.00000000	      0.00000000	     89.97209428	     11.92870834	     18.73377589	     44.66747840	     23.08050120	      0.00000000	      0.00000000
      4.50000000	     -5.82528690	      5.22975976	     -2.68467580	     -0.46666920	      0.64850574	     -0.79976280	     70.22703807	     -2.08458646	     -6.78335438	    100.46268714	      1.75340467	     30.50230450	      0.00000000	      0.00000000	     70.90784872	     -8.71707269	    -13.01762808	     26.64116726	      0.46497609	    -25.96266297	      0.00000000	      0.00000000	    -25.58337957	    -23.59102321	    -18.69405387	     86.17889300	    -11.33497668	     17.79259325	     50.61238629	     87.76803412	      0.00000000	      0.00000000	     89.97210263	     11.96132729	     18.65773241	     44.67000920	     22.58507544	      0.00000000	      0.00000000
      4.50500000	     -5.83581556	      5.21871854	     -2.64872147	     -0.46663898	      0.64901468	     -0.79974646	     70.17624755	     -2.09106336	     -6.80136770	    100.37029954	      1.75179220	     30.48787857	      0.00000000	      0.00000000	     70.86684692	     -8.68260694	    -13.00589968	     26.59747116	      0.46421344	    -25.94108997	      0.00000000	      0.00000000	    -25.67966634	    -23.67110383	    -18.99305187	     86.15492900	    -11.21208539	     17.67967107	     50.63208665	     87.74077757	      0.00000000	      0.00000000	     89.97221676	     11.95460716	     18.51475424	     44.79855931	     22.47080762	      0.00000000	      0.00000000
      4.51000000	     -5.83781794	      5.19424868	     -2.65087713	     -0.46656161	      0.64951737	     -0.79972509	     70.11320162	     -2.05630442	     -6.82013687	    100.26727380	      1.74999406	     30.42983927	      0.00000000	      0.00000000	     70.82722076	     -8.69374960	    -13.01581464	     26.59000768	      0.46408318	    -25.83502900	      0.00000000	      0.00000000	    -25.67089559	    -23.67848832	    -19.04528255	     86.12182245	    -11.19879329	     17.65231421	     50.66341386	     87.75995057	      0.00000000	      0.00000000	     89.97221284	     11.91111743	     18.66154034	     44.79630381	     22.97785177	      0.00000000	      0.00000000
      4.51500000	     -5.85854934	      5.18386613	     -2.64725058	     -0.46646441	      0.65003011	     -0.79977869	     70.06392271	     -2.03870318	     -6.81063950	    100.18991729	      1.74864393	     30.41932576	      0.00000000	      0.00000000	     70.80433667	     -8.69298940	    -13.04396967	     26.60367366	      0.46432170	    -25.65574623	      0.00000000	      0.00000000	    -25.56935873	    -23.62820660	    -18.89170191	     86.10703183	    -11.31674933	     17.67137242	     50.61698506	     87.73177859	      0.00000000	      0.00000000	     89.97212522	     11.98775303	     18.65170387	     44.72035691	     22.92279206	      0.00000000	      0.00000000
      4.52000000	     -5.83970864	      5.18197493	     -2.62902192	     -0.46644174	      0.65063002	     -0.79972514	     69.97771689	     -2.04601366	     -6.83868633	    100.07132362	      1.74657408	     30.39741825	      0.00000000	      0.00000000	     70.74651134	     -8.68450827	    -13.10623815	     26.61419692	      0.46450536	    -25.64633469	      0.00000000	      0.00000000	    -25.68987745	    -23.72146849	    -19.20472069	     86.09042632	    -11.14199203	     17.53464601	     50.65626295	     87.77074869	      0.00000000	      0.00000000	     89.97219503	     11.90794224	     18.57497933	     44.87776769	     22.66361061	      0.00000000	      0.00000000
